<svg width="233" height="233" viewBox="0 0 233 233" fill="none" xmlns="http://www.w3.org/2000/svg">
<path d="M21.5 231H209L224 223.5L231.5 210.5V69L230 22L222 8L206.5 0.5H115.5L21.5 2L9.5 10L2 23.5L1.5 200.5L4.5 218L21.5 231Z" fill="url(#paint0_linear_10763_8)"/>
<path d="M209 1.5H115.5L20 2.5L9 8.5L1.5 23V137.5V200.5L4.5 218L21.5 231H209L224 223.5L231.5 210.5V26L223 8.5L209 1.5Z" fill="url(#paint1_linear_10763_8)" fill-opacity="0.4"/>
<path d="M107.668 160.9C107.668 161.6 107.418 162.35 106.918 163.15C106.418 163.95 105.718 164.35 104.818 164.35C104.318 164.35 103.768 164.2 103.168 163.9C99.5682 162.2 95.3682 160.8 90.5682 159.7C85.7682 158.7 80.8182 157.8 75.7182 157C70.7182 156.2 65.8182 155.3 61.0182 154.3C56.2182 153.4 52.0182 152.2 48.4182 150.7C49.0182 152 49.6182 153.05 50.2182 153.85C50.8182 154.65 51.3182 155.35 51.7182 155.95C52.2182 156.55 52.6182 157.1 52.9182 157.6C53.2182 158.2 53.3682 158.95 53.3682 159.85C53.3682 160.65 53.0682 161.25 52.4682 161.65C51.8682 162.05 51.2682 162.25 50.6682 162.25C49.4682 162.25 48.1682 161.5 46.7682 160C45.4682 158.5 44.1182 156.6 42.7182 154.3C41.3182 152 39.9182 149.45 38.5182 146.65C37.2182 143.75 36.0182 140.95 34.9182 138.25C33.8182 135.55 32.8682 133.1 32.0682 130.9C31.2682 128.6 30.7182 126.85 30.4182 125.65L23.8182 99.25C23.8182 98.95 23.8682 98.55 23.9682 98.05C24.1682 97.55 24.5682 97.05 25.1682 96.55C24.7682 95.75 24.5682 94.9 24.5682 94C24.5682 91.2 26.1682 88.65 29.3682 86.35C32.5682 83.95 36.4182 81.95 40.9182 80.35C45.5182 78.65 50.3182 77.35 55.3182 76.45C60.3182 75.55 64.5682 75.1 68.0682 75.1C69.0682 75.1 70.5682 75.2 72.5682 75.4C74.5682 75.5 76.5182 75.85 78.4182 76.45C80.4182 77.05 82.1182 78 83.5182 79.3C85.0182 80.5 85.7682 82.2 85.7682 84.4C85.7682 86.5 84.6682 88.9 82.4682 91.6C80.3682 94.3 77.7182 97.15 74.5182 100.15C71.3182 103.15 67.8682 106.25 64.1682 109.45C60.4682 112.55 57.0182 115.7 53.8182 118.9C50.6182 122 47.9182 125.05 45.7182 128.05C43.6182 130.95 42.5682 133.65 42.5682 136.15C42.5682 138.05 43.3682 139.75 44.9682 141.25C46.6682 142.65 48.7682 143.9 51.2682 145C53.7682 146.1 56.4682 147.05 59.3682 147.85C62.3682 148.65 65.1682 149.3 67.7682 149.8C70.4682 150.3 72.7682 150.7 74.6682 151C76.6682 151.2 77.8682 151.3 78.2682 151.3C79.5682 151.3 81.8182 151.45 85.0182 151.75C88.2182 152.05 91.4682 152.6 94.7682 153.4C98.1682 154.1 101.168 155.05 103.768 156.25C106.368 157.45 107.668 159 107.668 160.9ZM78.7182 84.55C78.7182 83.85 78.3682 83.25 77.6682 82.75C76.9682 82.15 76.0182 81.7 74.8182 81.4C73.7182 81 72.4682 80.75 71.0682 80.65C69.7682 80.45 68.4682 80.35 67.1682 80.35C65.1682 80.35 62.7682 80.65 59.9682 81.25C57.1682 81.85 54.3182 82.6 51.4182 83.5C48.6182 84.4 46.0182 85.3 43.6182 86.2C41.2182 87.1 39.4682 87.85 38.3682 88.45C36.2682 89.65 34.2182 91 32.2182 92.5C30.2182 93.9 29.2182 95.3 29.2182 96.7C29.2182 96.9 29.3682 97.1 29.6682 97.3C29.9682 97.5 30.1182 97.85 30.1182 98.35C30.1182 98.95 30.4182 100.5 31.0182 103C31.6182 105.4 32.3182 108.15 33.1182 111.25C33.9182 114.25 34.7682 117.25 35.6682 120.25C36.6682 123.25 37.5682 125.65 38.3682 127.45C42.4682 121.65 46.8682 116.6 51.5682 112.3C56.3682 107.9 60.7682 104.05 64.7682 100.75C68.7682 97.35 72.0682 94.4 74.6682 91.9C77.3682 89.3 78.7182 86.85 78.7182 84.55ZM111.226 144.4C111.226 145 110.926 145.6 110.326 146.2C109.726 146.7 109.026 147.2 108.226 147.7C107.526 148.1 106.826 148.45 106.126 148.75C105.426 148.95 105.026 149.05 104.926 149.05C104.026 149.05 103.326 148.85 102.826 148.45C102.426 147.95 102.076 147.45 101.776 146.95C101.576 146.35 101.426 145.8 101.326 145.3C101.326 144.8 101.326 144.45 101.326 144.25C101.326 143.85 101.426 143.35 101.626 142.75C101.826 142.05 102.126 141.4 102.526 140.8C102.926 140.2 103.376 139.7 103.876 139.3C104.476 138.8 105.126 138.55 105.826 138.55C107.126 138.55 108.326 139.1 109.426 140.2C110.626 141.3 111.226 142.7 111.226 144.4ZM194.277 162.1C194.477 162.7 194.677 163.25 194.877 163.75C195.077 164.25 195.227 164.8 195.327 165.4C195.527 166 195.627 166.55 195.627 167.05C195.627 167.75 195.377 168.3 194.877 168.7C194.377 169.2 193.777 169.6 193.077 169.9C192.477 170.2 191.877 170.4 191.277 170.5C190.677 170.6 190.327 170.65 190.227 170.65C189.627 170.65 188.527 168.8 186.927 165.1C185.327 161.5 183.577 156.4 181.677 149.8C179.877 143.2 178.027 135.35 176.127 126.25C174.227 117.15 172.677 107.15 171.477 96.25C171.277 98.55 170.877 101.25 170.277 104.35C169.777 107.35 168.977 110.2 167.877 112.9C166.777 115.6 165.327 117.9 163.527 119.8C161.827 121.6 159.627 122.5 156.927 122.5C155.027 122.5 152.877 121.5 150.477 119.5C148.077 117.5 145.727 115.15 143.427 112.45C141.227 109.65 139.177 106.85 137.277 104.05C135.477 101.15 134.127 98.8 133.227 97C133.627 101.4 134.277 106.7 135.177 112.9C136.177 119.1 137.677 125.65 139.677 132.55C139.877 133.25 140.077 133.8 140.277 134.2C140.577 134.5 140.827 134.85 141.027 135.25C141.327 135.65 141.527 136.1 141.627 136.6C141.827 137 141.927 137.65 141.927 138.55C141.927 139.85 141.427 140.8 140.427 141.4C139.427 142 138.477 142.3 137.577 142.3C137.077 142.3 136.427 141.55 135.627 140.05C134.827 138.45 133.977 136.4 133.077 133.9C132.177 131.4 131.277 128.65 130.377 125.65C129.477 122.55 128.627 119.5 127.827 116.5C127.127 113.5 126.527 110.7 126.027 108.1C125.527 105.4 125.277 103.25 125.277 101.65C125.277 99.05 125.377 97.25 125.577 96.25C125.877 95.25 126.277 94.5 126.777 94V84.85C126.777 83.45 127.127 82.4 127.827 81.7C128.627 80.9 129.627 80.5 130.827 80.5C131.827 80.5 132.977 81.35 134.277 83.05C135.577 84.75 136.977 86.9 138.477 89.5C140.077 92.1 141.727 94.9 143.427 97.9C145.127 100.9 146.777 103.7 148.377 106.3C150.077 108.9 151.677 111.05 153.177 112.75C154.777 114.45 156.277 115.3 157.677 115.3C158.977 115.3 160.227 114.1 161.427 111.7C162.627 109.2 163.727 105.95 164.727 101.95C165.827 97.95 166.777 93.4 167.577 88.3C168.377 83.2 169.027 78 169.527 72.7C169.527 72.1 169.477 71.45 169.377 70.75C169.277 69.95 169.227 69.1 169.227 68.2C169.227 67 169.477 65.7 169.977 64.3C170.577 62.9 171.677 62.2 173.277 62.2C174.177 62.2 174.877 62.45 175.377 62.95C175.977 63.45 176.377 64.1 176.577 64.9C176.777 65.6 176.877 66.35 176.877 67.15C176.977 67.85 177.027 68.45 177.027 68.95C177.027 69.75 176.927 71.1 176.727 73C176.627 74.8 176.577 77.6 176.577 81.4C176.577 84.7 176.827 88.55 177.327 92.95C177.827 97.25 178.477 101.85 179.277 106.75C180.177 111.55 181.177 116.55 182.277 121.75C183.477 126.85 184.727 131.85 186.027 136.75C187.427 141.65 188.777 146.3 190.077 150.7C191.477 155 192.877 158.8 194.277 162.1ZM208.931 144.4C208.931 145 208.631 145.6 208.031 146.2C207.431 146.7 206.731 147.2 205.931 147.7C205.231 148.1 204.531 148.45 203.831 148.75C203.131 148.95 202.731 149.05 202.631 149.05C201.731 149.05 201.031 148.85 200.531 148.45C200.131 147.95 199.781 147.45 199.481 146.95C199.281 146.35 199.131 145.8 199.031 145.3C199.031 144.8 199.031 144.45 199.031 144.25C199.031 143.85 199.131 143.35 199.331 142.75C199.531 142.05 199.831 141.4 200.231 140.8C200.631 140.2 201.081 139.7 201.581 139.3C202.181 138.8 202.831 138.55 203.531 138.55C204.831 138.55 206.031 139.1 207.131 140.2C208.331 141.3 208.931 142.7 208.931 144.4Z" fill="#F4F4F4"/>
<rect x="1.5" y="1.5" width="230" height="230" rx="28.5" stroke="black" stroke-width="3"/>
<defs>
<linearGradient id="paint0_linear_10763_8" x1="48.5" y1="231" x2="228.5" y2="-22" gradientUnits="userSpaceOnUse">
<stop stop-color="#FD68EE"/>
<stop offset="0.795" stop-color="#00C2FF"/>
<stop offset="1" stop-color="white" stop-opacity="0.5"/>
</linearGradient>
<linearGradient id="paint1_linear_10763_8" x1="35" y1="27" x2="348" y2="-23.5" gradientUnits="userSpaceOnUse">
<stop stop-color="#00FFD1"/>
<stop offset="0.46501" stop-color="#00C2FF"/>
<stop offset="1" stop-color="#CC00FF"/>
</linearGradient>
</defs>
</svg>
