<svg width="150" height="150" viewBox="0 0 150 150" fill="none" xmlns="http://www.w3.org/2000/svg">
<g clip-path="url(#clip0_943_310)">
<mask id="mask0_943_310" style="mask-type:luminance" maskUnits="userSpaceOnUse" x="-121" y="-244" width="1087" height="839">
<path d="M-120.199 594.911H965.327V-243.92H-120.199V594.911Z" fill="white"/>
</mask>
<g mask="url(#mask0_943_310)">
<path d="M150 143.568C150 147.124 147.123 150 143.575 150H6.42544C2.87692 150 0 147.124 0 143.568V6.42554C0 2.87695 2.87692 -1.52588e-05 6.42544 -1.52588e-05H143.575C147.123 -1.52588e-05 150 2.87695 150 6.42554V143.568Z" fill="black"/>
</g>
<path d="M16.9023 47.2021V14.3082H22.552V27.7021H28.5649V14.3082H34.2146V47.2021H28.5649V32.6227H22.552V47.2021H16.9023Z" fill="#EDAA00"/>
<path d="M42.0455 47.2021H36.5781L42.639 14.3082H49.6524L55.7133 47.2021H50.2459L49.244 39.9131H43.0474L42.0455 47.2021ZM43.8684 34.9925H48.4243L46.1902 20.8694H46.1012L43.8684 34.9925Z" fill="#EDAA00"/>
<mask id="mask1_943_310" style="mask-type:luminance" maskUnits="userSpaceOnUse" x="-121" y="-244" width="1087" height="839">
<path d="M-120.199 594.911H965.327V-243.92H-120.199V594.911Z" fill="white"/>
</mask>
<g mask="url(#mask1_943_310)">
<path d="M63.7278 47.2021H58.0781V14.3082H66.0058C72.3407 14.3082 75.574 16.996 75.574 24.0123C75.574 29.2975 73.5236 31.4384 71.6129 32.3047L76.3923 47.2021H70.6535L66.6431 33.5794C65.9153 33.6712 64.7297 33.7164 63.7278 33.7164V47.2021ZM63.7278 29.07H65.733C68.7854 29.07 69.9257 27.931 69.9257 24.0123C69.9257 20.0936 68.7854 18.9546 65.733 18.9546H63.7278V29.07Z" fill="#EDAA00"/>
</g>
<path d="M90.4047 14.3082H95.9653L89.0821 47.2021H83.4324L76.5547 14.3082H82.1153L86.2134 37.1334H86.3066L90.4047 14.3082Z" fill="#EDAA00"/>
<path d="M98.1875 47.2021V14.3082H113.312V19.2288H103.837V27.7021H111.126V32.6227H103.837V42.2816H113.954V47.2021H98.1875Z" fill="#EDAA00"/>
<path d="M127.703 47.2021H122.054V33.5341L115.223 14.3082H120.961L124.928 26.8372H125.017L128.797 14.3082H134.54L127.703 33.5341V47.2021Z" fill="#EDAA00"/>
<path d="M47.7887 54.5158V98.1885H41.2536V64.0733H41.1344L34.3608 98.1885H30.7287L23.9551 64.0733H23.8345V98.1885H17.3008V54.5158H27.1623L32.4831 80.0412H32.6064L37.9272 54.5158H47.7887Z" fill="white"/>
<mask id="mask2_943_310" style="mask-type:luminance" maskUnits="userSpaceOnUse" x="-121" y="-244" width="1087" height="839">
<path d="M-120.199 594.911H965.327V-243.92H-120.199V594.911Z" fill="white"/>
</mask>
<g mask="url(#mask2_943_310)">
<path d="M53.4844 54.5153H60.9844V87.4805C60.9844 90.6864 62.2549 92.2599 64.9783 92.2599C67.6976 92.2599 68.9682 90.6864 68.9682 87.4805V54.5153H76.4709V87.179C76.4709 94.6777 72.1124 98.791 64.9783 98.791C57.8402 98.791 53.4844 94.6777 53.4844 87.179V54.5153Z" fill="white"/>
<path d="M82.5273 54.5158H93.6595C101.402 54.5158 105.515 58.7497 105.515 67.7014V85.0016C105.515 93.9546 101.402 98.1885 93.6595 98.1885H82.5273V54.5158ZM90.0301 92.0179H92.6288C96.6214 92.0179 98.0125 90.5047 98.0125 85.9089V66.7954C98.0125 62.1969 96.6214 60.685 92.6288 60.685H90.0301V92.0179Z" fill="white"/>
<path d="M111.57 54.5158H122.702C130.445 54.5158 134.558 58.7497 134.558 67.7014V85.0016C134.558 93.9546 130.445 98.1885 122.702 98.1885H111.57V54.5158ZM119.073 92.0179H121.672C125.664 92.0179 127.056 90.5047 127.056 85.9089V66.7954C127.056 62.1969 125.664 60.685 121.672 60.685H119.073V92.0179Z" fill="white"/>
<path d="M26.4906 115.656V113.417C26.4906 110.978 25.3708 109.939 24.0934 109.939C22.0937 109.939 21.4536 110.978 21.4536 113.138V127.772C21.4536 129.929 22.0937 130.971 24.0934 130.971C25.8917 130.971 26.4906 129.929 26.4906 128.053V124.572H31.4495V127.891C31.4495 131.97 29.0495 135.29 24.0934 135.29C18.8947 135.29 16.4961 131.97 16.4961 127.891V113.016C16.4961 108.938 18.8947 105.62 24.0934 105.62C29.0495 105.62 31.4495 109.218 31.4495 113.537V115.656H26.4906Z" fill="#EDAA00"/>
<path d="M35.6875 113.016C35.6875 108.94 38.0847 105.62 43.2834 105.62C48.4836 105.62 50.8808 108.94 50.8808 113.016V127.891C50.8808 131.97 48.4836 135.29 43.2834 135.29C38.0847 135.29 35.6875 131.97 35.6875 127.891V113.016ZM40.6436 127.772C40.6436 129.929 41.2851 130.971 43.2834 130.971C45.2832 130.971 45.9232 129.929 45.9232 127.772V113.138C45.9232 110.978 45.2832 109.939 43.2834 109.939C41.2851 109.939 40.6436 110.978 40.6436 113.138V127.772Z" fill="#EDAA00"/>
</g>
<path d="M54.6328 134.89V106.021H59.5917V130.571H67.3891V134.89H54.6328Z" fill="#EDAA00"/>
<path d="M69.3828 134.89V106.021H74.3444V130.571H82.1391V134.89H69.3828Z" fill="#EDAA00"/>
<path d="M84.3789 134.89V106.021H97.6506V110.337H89.335V117.774H95.7344V122.093H89.335V130.571H98.2125V134.89H84.3789Z" fill="#EDAA00"/>
<mask id="mask3_943_310" style="mask-type:luminance" maskUnits="userSpaceOnUse" x="-121" y="-244" width="1087" height="839">
<path d="M-120.199 594.911H965.327V-243.92H-120.199V594.911Z" fill="white"/>
</mask>
<g mask="url(#mask3_943_310)">
<path d="M108.161 120.254H116.279V134.891H113.878L112.962 132.732C111.483 134.489 110.28 135.291 107.963 135.291C104.042 135.291 101.324 132.489 101.324 127.892V113.017C101.324 108.939 103.726 105.619 108.604 105.619C113.56 105.619 116.039 109.217 116.039 113.536V115.377H111.321C111.321 111.058 110.442 109.938 108.484 109.938C107.281 109.938 106.282 110.658 106.282 113.098V127.931C106.282 129.771 106.885 130.972 108.604 130.972C110.603 130.972 111.321 129.852 111.321 126.973V124.174H108.161V120.254Z" fill="#EDAA00"/>
</g>
<path d="M120.52 134.89V106.021H133.791V110.337H125.476V117.774H131.875V122.093H125.476V130.571H134.355V134.89H120.52Z" fill="#EDAA00"/>
</g>
<defs>
<clipPath id="clip0_943_310">
<rect width="150" height="150" fill="white"/>
</clipPath>
</defs>
</svg>
