<svg width="150" height="150" viewBox="0 0 150 150" fill="none" xmlns="http://www.w3.org/2000/svg">
<mask id="mask0_943_306" style="mask-type:alpha" maskUnits="userSpaceOnUse" x="0" y="0" width="150" height="150">
<circle cx="75" cy="75" r="75" fill="white"/>
</mask>
<g mask="url(#mask0_943_306)">
<ellipse cx="80" cy="74.5" rx="81" ry="80.5" fill="white"/>
<path d="M133.378 46.2784L129.054 41.857C122.307 34.9564 113.486 31.4154 104.494 31.4154H104.145C98.9547 31.4154 93.5916 32.6551 88.7498 35.1344L77.6782 40.7922L44.9881 30.001L2.08984 60.2578L30.629 119.001H60.2107L75.4332 108.737L85.9835 113.871C90.8253 116.347 96.0157 117.409 101.206 117.409C111.929 117.409 122.479 112.278 129.227 103.076L136.666 92.8127C147.216 78.8365 145.831 58.8433 133.378 46.2784ZM57.7866 111.039H35.474L12.2947 63.0867L46.3696 39.0281L68.1673 46.2816C58.8259 53.0075 53.2901 63.7987 53.2901 75.6516C53.2901 87.158 58.8227 97.9493 67.6493 104.672L57.7866 111.039ZM74.912 99.5386C66.6099 94.5832 61.2468 85.3844 61.2468 75.4768C61.2468 64.8604 66.9553 55.4804 76.2967 50.703L78.5449 49.6414L83.7321 51.4118L95.149 86.268L74.912 99.5386ZM130.436 88.2133L123.001 98.4769C117.983 105.374 109.854 109.624 101.203 109.624C97.0519 109.624 93.0735 108.737 89.4406 106.792L83.214 103.607L104.49 89.275L89.7891 44.864L88.4044 44.3332L92.21 42.3879C96.0157 40.4394 100.167 39.3778 104.318 39.3778C111.584 39.3778 118.328 42.2067 123.519 47.5149L127.842 51.9427C137.357 61.6723 138.396 77.2441 130.436 88.2133Z" fill="black"/>
</g>
</svg>
