<svg xmlns="http://www.w3.org/2000/svg" width="101" height="28" fill="none" class="sc-1jhkbh4-0 gjtwsR"><path fill="#000" fill-opacity=".95" d="M41.707 5.121 40.355 3.73c-2.11-2.171-4.868-3.285-7.68-3.285h-.109c-1.623 0-3.3.39-4.814 1.17l-3.462 1.78L14.068 0 .654 9.519 9.578 28h9.25l4.76-3.229 3.299 1.615c1.514.779 3.137 1.113 4.76 1.113 3.353 0 6.652-1.614 8.762-4.509l2.326-3.229c3.299-4.397 2.866-10.687-1.028-14.64ZM18.07 25.495h-6.977L3.845 10.409 14.5 2.84l6.816 2.282c-2.921 2.116-4.652 5.511-4.652 9.24 0 3.62 1.73 7.015 4.49 9.13l-3.084 2.004Zm5.355-3.618c-2.596-1.559-4.273-4.453-4.273-7.57 0-3.34 1.785-6.291 4.706-7.794l.703-.334 1.622.557 3.57 10.966-6.328 4.175Zm17.362-3.563-2.325 3.229c-1.569 2.17-4.111 3.507-6.816 3.507-1.298 0-2.542-.279-3.678-.891l-1.947-1.002 6.653-4.509-4.597-13.972-.433-.167 1.19-.612c1.19-.613 2.488-.947 3.786-.947 2.272 0 4.381.89 6.004 2.56l1.352 1.393c2.975 3.061 3.3 7.96.811 11.411Z"/></svg>